<?xml version="1.0" encoding="UTF-8"?>
<svg id="Layer_2" xmlns="http://www.w3.org/2000/svg" viewBox="0 0 518.72 379.14">
  <g id="Layer_1-2" data-name="Layer_1">
    <g>
      <path d="M0,125.8c15.94-3.74,31.88-7.49,49.63-11.65,1.01-7.78,1.89-16.26,3.25-24.66,2.41-14.92,4.65-29.89,8.02-44.62.85-3.71,5.1-8.44,8.86-9.6C118.22,20.41,167.48,8.72,218.13,2.34c66.39-8.36,129.33,7.1,192.22,23.42,8.62,2.24,17.03,5.25,25.72,7.16,8.2,1.81,11.74,6.48,12.73,13.94,2.36,17.86,4.95,35.69,7.53,53.52.4,2.79,1.28,5.51,2.01,8.56,20.47,4.49,40.43,8.86,60.38,13.23-.13.55-.27,1.1-.4,1.65-42.69-5-85.27-11.4-128.11-14.61-43.34-3.25-86.96-4.84-130.43-4.38-43.46.46-87,3.23-130.29,7.07-43.13,3.82-86.01,10.23-129,15.5-.16-.54-.32-1.07-.48-1.61ZM227.44,89.91c.48.59.95,1.18,1.43,1.76,55.8,2.05,111.6,4.1,166.88,6.13-.03-.03-.87-1.22-2.02-2-20.51-13.95-41.12-27.79-61.58-41.8-6.17-4.22-12.24-4.29-19.14-1.7-12.87,4.83-25.94,9.18-39.71,14.01-7.5-5.71-15.45-10.8-22.14-17.07-9.18-8.62-18.05-8.76-28.97-2.97-33.61,17.82-67.55,35.1-101.33,52.64-1.92,1-3.53,2.54-6.74,4.89,20.06-2.1,38.1-5.14,56.21-5.61,23.23-.6,44.24-6.15,63.56-18.16,3.18-1.98,7.25-2.69,10.9-3.98.26.57.52,1.13.78,1.7-6.04,4.06-12.08,8.11-18.13,12.17ZM443.89,105.16c.64-.08,1.28-.16,1.92-.24-2.56-17.98-4.67-36.03-8.07-53.86-.66-3.44-5.81-7.53-9.78-8.76-14.93-4.61-30.17-8.4-45.41-12.06-44.32-10.62-88.84-20.34-135.04-18.62-58.22,2.16-113.59,17.78-169.03,32.76-2.8.76-6.53,3.7-6.99,6.11-3.72,19.52-6.76,39.15-10.01,58.75.85.12,1.71.24,2.56.35,2.51-16,5.51-31.95,7.34-48.02,1.16-10.19,6.05-15.29,16.67-17.67,30.29-6.77,60.25-14.91,90.61-21.39,43.69-9.32,87.92-13.28,132.23-4.31,36.14,7.32,72.03,15.81,107.91,24.19,16.84,3.93,16.73,4.47,18.91,20.14,1.97,14.21,4.12,28.4,6.19,42.6Z"/>
      <path d="M82.92,329.26c117.13-21.59,234.66-24.39,352.87-4.93-1.5.33-3.02,1.01-4.51.95-25.93-.98-51.84-2.35-77.78-2.86-5.38-.11-11.65,1.78-16.11,4.67-23.69,15.3-47.06,31.03-70.26,46.99-9.55,6.57-18.48,6.75-28.12.62-22.26-14.15-44.78-27.95-66.89-42.32-7.02-4.56-13.77-6.45-22.43-5.51-19.01,2.07-38.14,3.09-57.23,4.45-3.17.23-6.37.03-9.55.03v-2.08ZM324.92,323.77c-.49-.77-.99-1.53-1.48-2.3-23.07,15.3-46.15,30.59-69.92,46.35-23.72-14.43-46.39-28.23-69.07-42.03-.42.63-.83,1.26-1.25,1.88,23.15,14.21,46.3,28.43,69.76,42.83,24.89-16.16,48.43-31.44,71.96-46.73Z"/>
      <g>
        <path d="M394.9,241.8c-20.46,6.22-40.79,12.19-63.12,9.91-37.68-3.85-61.72-22.24-73.38-55.99-1.82-5.27-6.3-9.72-9.4-14.32,2.62-3.21,7.84-7.23,9.75-12.34,17.11-45.95,55.18-54.08,99.3-38.71,10.51,3.66,19.8,10.4,31.08,16.5-6.88,5.55-12.86,10.37-20.77,16.75-1.29-1.82-2.72-4.86-5.08-7.01-13.69-12.42-30.07-17.37-48.44-12.33-22.05,6.05-33.05,29.43-25.82,53.69,8.91,29.93,38.14,40.06,68.34,33.69,6.87-1.45,10.32-5.64,9.76-12.72-.45-5.73-.09-11.51-.09-19.11-11.93-1.03-23.3-2.02-35.63-3.09v-18.24c22,3,42.78,5.83,63.51,8.65v54.66Z"/>
        <path d="M40.47,185.32c5.6,1.29,11.38,3.33,17.3,3.83,12.6,1.06,25.3,1.07,37.92,1.96,13.39.94,25.33,4.59,32.98,16.36,2.08,3.21,6.13,5.29,8.22,7.02-3.18,5.2-6.96,9.96-9.21,15.3-8.99,21.33-28.08,28.96-49.72,33.18-19.15,3.74-38.05,2.62-56.62-3.31-5.5-1.76-11.14-3.15-18.6-5.23,5.7-8.37,11.06-16.23,16.65-24.42,19.76,16.98,41.88,18.55,65.48,11.02,3.68-1.17,8.22-2.99,9.96-5.82,2.73-4.45,5.16-10.29,4.33-15.02-.53-2.99-6.97-6.67-11.17-7.2-15.57-1.94-31.4-2.04-46.95-4.11-12.67-1.68-25.44-4.23-31.57-17.51-1.35-2.94-5.78-4.62-8.12-6.38,25.58-46.83,69.02-50.88,119.87-42.21-5.81,9.72-10.8,18.07-16.19,27.08-17.68-13.75-35.83-12.26-54.17-5.32-9.97,3.77-12,8.03-10.39,20.77Z"/>
        <path d="M393.1,254.55c16.42-6.89,16.56-7.13,17-24.29.5-19.76.81-39.54,1.7-59.29.61-13.71.58-26.71-16.73-32.53,39.38,4.23,78.76,8.46,118.95,12.77v20.91c-23.3-10.83-48.34-6-73.25-11.1v33.01c16.63.71,33.05,1.42,50.33,2.16v18.61c-13.88-1.32-27.49-2.67-41.12-3.9-6.82-.61-10.79,2.72-11.21,8.86-.5,7.19-.12,14.43-.12,22.9,8.9.81,17.37,1.84,25.88,2.29,8.01.42,16.06.21,24.09.31,10.31.13,20.88.94,26.16-11.37.86.6,1.72,1.2,2.57,1.79-.38,8.08-.77,16.15-1.26,26.57-41.7,1.46-82.33-2.73-123-7.7Z"/>
        <path d="M199.72,117.26c3.52,5.36,5.85,8.31,7.53,11.55,14.51,27.92,28.94,55.87,43.3,83.85,6.18,12.05,11.52,24.7,27.85,28.52-.33.63-.66,1.26-.99,1.9h-41.65c-3.53-6.72-7.32-13.91-11.79-22.42-16.25,1.31-32.68,2.63-46.91,3.77-8.13,9.93-13.28,20.69-22.12,25.72-8.41,4.78-20.67,3.55-31.33,4.98-.09-1.86-.38-2.72-.11-2.91,13.25-9.6,19.77-23.38,26.45-37.15,13.98-28.79,28.19-57.49,42.42-86.17,1.62-3.28,3.92-6.25,7.34-11.62ZM200.16,168.23c-.73.11-1.45.22-2.18.33-4.81,11.8-9.62,23.59-15.16,37.17,11.61-.94,21.43-1.73,32.54-2.63-5.49-12.61-10.34-23.73-15.19-34.86Z"/>
      </g>
      <g>
        <path d="M148.63,284.04c.89.61,1.62,1.39,2.18,2.34.56.95.88,1.99.95,3.1.09,1.41-.18,2.71-.83,3.88s-1.63,2.14-2.96,2.89c-1.33.75-2.92,1.19-4.79,1.32-4.16.3-6.23.46-10.39.78-.88-11.12-1.31-16.68-2.19-27.79,4.06-.32,6.1-.47,10.16-.77,1.92-.14,3.59.06,4.98.59,1.4.53,2.47,1.31,3.22,2.33.75,1.02,1.17,2.19,1.25,3.52.11,1.65-.25,3.04-1.08,4.18-.83,1.14-1.97,2-3.41,2.58,1.03.09,2,.44,2.89,1.04ZM135.23,282.28c2.47-.19,3.7-.28,6.17-.46,1.72-.13,3.02-.62,3.91-1.48.89-.86,1.28-2,1.18-3.41-.1-1.41-.65-2.48-1.65-3.21-1-.73-2.4-1.03-4.18-.9-2.45.18-3.68.27-6.13.46.28,3.61.41,5.41.69,9.01ZM146.81,293.02c.96-.92,1.38-2.14,1.28-3.66-.11-1.54-.73-2.72-1.86-3.54-1.14-.82-2.6-1.16-4.4-1.03-2.55.18-3.82.28-6.36.47.3,3.92.45,5.89.75,9.81,2.58-.2,3.87-.29,6.44-.48,1.81-.13,3.2-.66,4.15-1.58Z"/>
        <path d="M171.36,267.86c.38,7.05.57,10.57.95,17.61.13,2.48.84,4.28,2.12,5.41,1.28,1.13,3,1.65,5.16,1.54,2.14-.11,3.78-.78,4.95-2.04,1.16-1.25,1.69-3.12,1.58-5.6-.32-7.05-.48-10.57-.8-17.62,1.48-.07,2.22-.1,3.7-.16.3,7.03.45,10.55.76,17.58.1,2.32-.29,4.29-1.15,5.92-.87,1.63-2.08,2.86-3.63,3.71-1.55.85-3.31,1.32-5.29,1.41-1.97.1-3.77-.2-5.4-.89-1.63-.69-2.95-1.8-3.96-3.33-1.01-1.53-1.58-3.46-1.71-5.77-.39-7.03-.59-10.54-.98-17.57,1.48-.08,2.22-.12,3.7-.2Z"/>
        <path d="M211.12,266.21c.33,11.15.49,16.72.82,27.87-1.46.04-2.19.07-3.64.11-.35-11.15-.53-16.72-.89-27.87,1.48-.05,2.22-.07,3.71-.11Z"/>
        <path d="M233.76,290.62c3.91-.06,5.87-.09,9.79-.13.01,1.18.02,1.78.03,2.96-5.36.05-8.05.09-13.41.19-.2-11.15-.31-16.73-.51-27.88,1.48-.03,2.22-.04,3.71-.06.16,9.97.24,14.95.4,24.92Z"/>
        <path d="M276.32,267.27c2.25,1.16,3.97,2.8,5.14,4.92,1.18,2.12,1.74,4.61,1.7,7.46-.04,2.85-.68,5.32-1.9,7.39-1.22,2.08-2.95,3.66-5.19,4.74-2.24,1.08-4.88,1.62-7.92,1.6-3.48-.02-5.21-.02-8.69-.02,0-11.15,0-16.73,0-27.88,3.54,0,5.3,0,8.84.02,3.1.02,5.77.61,8.03,1.76ZM276.46,287.59c1.92-1.89,2.91-4.55,2.95-7.99.04-3.47-.89-6.19-2.8-8.15-1.91-1.97-4.69-2.97-8.32-2.98-2.05-.01-3.07-.01-5.12-.02-.02,8.77-.03,13.15-.05,21.92,2.02,0,3.03,0,5.05.02,3.61.02,6.37-.91,8.29-2.8Z"/>
        <path d="M304.09,269.05c-.1,3.73-.15,5.59-.25,9.32,4.11.11,6.16.17,10.26.31-.04,1.2-.06,1.8-.1,3-4.1-.14-6.15-.2-10.24-.31-.1,3.84-.16,5.76-.26,9.6,4.56.12,6.83.19,11.39.35-.04,1.2-.06,1.8-.1,3-6-.2-9.01-.29-15.01-.44.28-11.16.41-16.75.69-27.91,6.11.15,9.16.24,15.27.45-.04,1.2-.06,1.8-.1,3-4.62-.16-6.92-.23-11.54-.35Z"/>
        <path d="M347,295.72c-2.41-4.7-3.62-7.04-6.07-11.73-1.77-.09-2.66-.13-4.43-.21-.21,4.56-.32,6.83-.54,11.39-1.46-.07-2.18-.1-3.64-.17.5-11.14.75-16.71,1.25-27.85,3.66.16,5.49.25,9.16.44,2.14.11,3.93.56,5.37,1.36,1.44.8,2.49,1.83,3.15,3.1.66,1.27.95,2.68.86,4.25-.11,1.92-.76,3.58-1.96,4.98-1.2,1.4-2.92,2.28-5.18,2.65,2.58,4.81,3.85,7.22,6.39,12.05-1.74-.1-2.62-.15-4.36-.24ZM336.63,280.86c2.16.1,3.24.15,5.41.26,1.99.1,3.51-.31,4.56-1.23,1.05-.92,1.62-2.19,1.7-3.81.09-1.65-.33-2.96-1.27-3.91-.94-.96-2.43-1.49-4.46-1.59-2.18-.11-3.27-.16-5.44-.27-.2,4.22-.3,6.33-.5,10.55Z"/>
        <path d="M372.57,296.6c-1.41-.75-2.49-1.73-3.23-2.95-.75-1.21-1.09-2.58-1.01-4.1,1.56.1,2.34.16,3.9.27.04,1.31.51,2.45,1.39,3.41.89.96,2.23,1.5,4.05,1.63,1.73.13,3.13-.2,4.2-.99,1.07-.79,1.65-1.86,1.76-3.22.08-1.06-.15-1.95-.69-2.66-.54-.71-1.24-1.27-2.1-1.68-.86-.41-2.03-.88-3.5-1.38-1.81-.62-3.27-1.2-4.35-1.75-1.08-.56-1.99-1.37-2.71-2.45-.73-1.08-1.03-2.48-.91-4.21.1-1.52.58-2.83,1.45-3.95.86-1.12,2.03-1.95,3.5-2.49,1.47-.54,3.12-.74,4.97-.61,2.66.19,4.78,1.01,6.37,2.44,1.59,1.43,2.41,3.24,2.45,5.41-1.62-.13-2.43-.19-4.05-.31-.05-1.07-.55-2.05-1.49-2.94-.94-.89-2.24-1.39-3.89-1.51-1.54-.11-2.83.19-3.86.91-1.03.72-1.59,1.78-1.69,3.19-.07,1.01.16,1.86.7,2.53.53.68,1.21,1.21,2.04,1.61.82.39,1.99.86,3.49,1.4,1.81.64,3.27,1.25,4.36,1.83,1.09.58,2,1.41,2.72,2.5.72,1.09,1.02,2.51.88,4.26-.11,1.36-.57,2.6-1.38,3.74-.81,1.14-1.96,2.03-3.43,2.66-1.47.64-3.16.88-5.08.74-1.84-.13-3.46-.58-4.87-1.33Z"/>
      </g>
    </g>
  </g>
</svg>